<?xml version="1.0" encoding="UTF-8" standalone="no"?>
<svg viewBox="0 0 1100 1200" xmlns="http://www.w3.org/2000/svg" xmlns:xlink="http://www.w3.org/1999/xlink">
<defs>
<linearGradient id="linearGradient4902">
<stop offset="0" stop-color="#ff6134"/>
<stop offset="1" stop-color="#f00"/>
</linearGradient>
<linearGradient id="linearGradient4894">
<stop offset="0" stop-color="#5f0000" stop-opacity="0"/>
<stop offset=".5" stop-color="#f00" stop-opacity="0"/>
<stop offset="1" stop-color="#590000"/>
</linearGradient>
<linearGradient id="linearGradient2201">
<stop offset="0" stop-color="#525252"/>
<stop offset="1" stop-color="#d9d9d9"/>
</linearGradient>
<linearGradient id="linearGradient2168">
<stop offset="0"/>
<stop offset="1" stop-opacity="0"/>
</linearGradient>
<linearGradient id="linearGradient2077">
<stop offset="0" stop-color="#fff"/>
<stop offset="1" stop-color="#fff" stop-opacity="0"/>
</linearGradient>
<linearGradient id="linearGradient2065">
<stop offset="0" stop-color="#00575f" stop-opacity="0"/>
<stop offset=".5" stop-color="#0062ff" stop-opacity="0"/>
<stop offset="1" stop-color="#002859"/>
</linearGradient>
<linearGradient id="linearGradient2053">
<stop offset="0" stop-color="#34abff"/>
<stop offset="1" stop-color="#0057ff"/>
</linearGradient>
<linearGradient id="linearGradient3483">
<stop offset="0" stop-color="#ffff34"/>
<stop offset="1" stop-color="#ffc200"/>
</linearGradient>
<linearGradient id="linearGradient3475">
<stop offset="0" stop-color="#5a5f00" stop-opacity="0"/>
<stop offset=".5" stop-color="#ffde00" stop-opacity="0"/>
<stop offset="1" stop-color="#cf9800"/>
</linearGradient>
<linearGradient gradientTransform="matrix(1.2302,-.27318,.17203,.77468,-201.8059,-17.56290)" gradientUnits="userSpaceOnUse" id="linearGradient2235" x1="336.15353" x2="345.40002" xlink:href="#linearGradient2168" y1="1203.6084" y2="608.36353"/>
<linearGradient gradientTransform="matrix(.83134,-.18461,.25456,1.14636,-201.8059,-17.56290)" gradientUnits="userSpaceOnUse" id="linearGradient2241" x1="-683.49762" x2="1100.712" xlink:href="#linearGradient2065" y1="-283.38879" y2="504.57803"/>
<linearGradient gradientTransform="matrix(1.18355,-.26282,.17881,.80521,-201.8059,-17.56290)" gradientUnits="userSpaceOnUse" id="linearGradient2246" x1="350.37308" x2="285.90225" xlink:href="#linearGradient2077" y1="168.42853" y2="601.16229"/>
<linearGradient gradientTransform="matrix(1.21908,0,0,.82029,0,-6)" gradientUnits="userSpaceOnUse" id="linearGradient2122" x1="309.1568" x2="302.30682" xlink:href="#linearGradient2053" y1="900.83911" y2="958.59302"/>
<linearGradient gradientTransform="matrix(1.21908,0,0,.82029,0,-6)" gradientUnits="userSpaceOnUse" id="linearGradient2126" x1="299.34467" x2="301.38113" xlink:href="#linearGradient2168" y1="959.68787" y2="945.18097"/>
<linearGradient gradientTransform="matrix(1.21908,0,0,.82029,0,-6)" gradientUnits="userSpaceOnUse" id="linearGradient2140" x1="293.05011" x2="311.93381" xlink:href="#linearGradient2168" y1="901.66022" y2="937.79065"/>
<linearGradient gradientTransform="matrix(1.21908,0,0,.82029,0,-6)" gradientUnits="userSpaceOnUse" id="linearGradient2144" x1="293.23529" x2="310.45273" xlink:href="#linearGradient2168" y1="923.83136" y2="927.11578"/>
<linearGradient gradientTransform="matrix(.36618,0,0,2.73092,0,-6)" gradientUnits="userSpaceOnUse" id="linearGradient2199" x1="1062.9684" x2="1074.9819" xlink:href="#linearGradient2201" y1="281.09448" y2="396.19681"/>
<linearGradient gradientTransform="matrix(.82209,0,0,1.21641,0,-6)" gradientUnits="userSpaceOnUse" id="linearGradient2256" spreadMethod="reflect" x1="423.76266" x2="448.11847" xlink:href="#linearGradient2201" y1="614.40485" y2="654.13196"/>
<linearGradient gradientTransform="matrix(.64452,0,0,1.55154,0,-6)" gradientUnits="userSpaceOnUse" id="linearGradient2264" spreadMethod="reflect" x1="608.26611" x2="572.03137" xlink:href="#linearGradient2201" y1="588.04816" y2="590.56244"/>
<linearGradient gradientTransform="matrix(.81392,0,0,1.22862,0,-6)" gradientUnits="userSpaceOnUse" id="linearGradient2317" spreadMethod="reflect" x1="469.01181" x2="491.66272" xlink:href="#linearGradient2201" y1="838.20184" y2="843.22455"/>
<linearGradient gradientUnits="userSpaceOnUse" id="linearGradient2321" x1="365.55868" x2="374.19079" xlink:href="#linearGradient2168" y1="996.03756" y2="1011.31306"/>
<linearGradient gradientUnits="userSpaceOnUse" id="linearGradient2327" spreadMethod="reflect" x1="376.49172" x2="387.39044" xlink:href="#linearGradient2168" y1="736.07155" y2="743.21053"/>
<linearGradient gradientTransform="matrix(-.78264,.25163,.37232,1.15803,576.3574,-7.93568)" gradientUnits="userSpaceOnUse" id="linearGradient4989" spreadMethod="reflect" x1="423.76266" x2="448.11847" xlink:href="#linearGradient2201" y1="614.40485" y2="654.13196"/>
<linearGradient gradientTransform="matrix(1.01034,-.1009,9.786941e-2,.97999,-17.72450,122.4103)" gradientUnits="userSpaceOnUse" id="linearGradient4992" spreadMethod="reflect" x1="370.79483" x2="381.52863" xlink:href="#linearGradient2168" y1="747.38092" y2="754.62958"/>
<linearGradient gradientTransform="matrix(-.61798,.18305,.44065,1.48765,597.5026,-4.42615)" gradientUnits="userSpaceOnUse" id="linearGradient5001" spreadMethod="reflect" x1="608.26611" x2="572.03137" xlink:href="#linearGradient2201" y1="588.04816" y2="590.56244"/>
<linearGradient gradientTransform="matrix(1.21305,-.12114,8.151468e-2,.81623,1.6793,116.4401)" gradientUnits="userSpaceOnUse" id="linearGradient5013" x1="293.23529" x2="310.45273" xlink:href="#linearGradient2168" y1="923.83136" y2="927.11578"/>
<linearGradient gradientTransform="matrix(1.21305,-.12114,8.151468e-2,.81623,1.6793,116.4401)" gradientUnits="userSpaceOnUse" id="linearGradient5016" x1="293.05011" x2="311.93381" xlink:href="#linearGradient2168" y1="901.66022" y2="937.79065"/>
<linearGradient gradientTransform="matrix(1.21305,-.12114,8.151468e-2,.81623,1.6793,116.4401)" gradientUnits="userSpaceOnUse" id="linearGradient5019" x1="299.34467" x2="301.38113" xlink:href="#linearGradient2168" y1="959.68787" y2="945.18097"/>
<linearGradient gradientTransform="matrix(1.21305,-.12114,8.151468e-2,.81623,1.6793,116.4401)" gradientUnits="userSpaceOnUse" id="linearGradient5022" x1="309.1568" x2="302.30682" xlink:href="#linearGradient4902" y1="900.83911" y2="958.59302"/>
<linearGradient gradientTransform="matrix(1.19696,-.39408,.24816,.75375,-200.2767,124.9885)" gradientUnits="userSpaceOnUse" id="linearGradient5031" x1="336.15353" x2="345.40002" xlink:href="#linearGradient2168" y1="1203.6084" y2="608.36353"/>
<linearGradient gradientTransform="matrix(.80888,-.26631,.36722,1.11539,-200.2767,124.9885)" gradientUnits="userSpaceOnUse" id="linearGradient5040" x1="-683.49762" x2="1100.712" xlink:href="#linearGradient4894" y1="-283.38879" y2="504.57803"/>
<linearGradient gradientTransform="matrix(1.15158,-.37914,.25794,.78345,-200.2767,124.9885)" gradientUnits="userSpaceOnUse" id="linearGradient5049" x1="350.37308" x2="285.90225" xlink:href="#linearGradient2077" y1="168.42853" y2="601.16229"/>
<linearGradient gradientTransform="matrix(.36436,-3.638815e-2,.27138,2.7174,1.6793,116.4401)" gradientUnits="userSpaceOnUse" id="linearGradient5058" x1="1062.9684" x2="1074.9819" xlink:href="#linearGradient2201" y1="281.09448" y2="396.19681"/>
<linearGradient gradientTransform="matrix(.80989,-8.088177e-2,.12209,1.22254,1.6793,116.4401)" gradientUnits="userSpaceOnUse" id="linearGradient5070" spreadMethod="reflect" x1="469.01181" x2="491.66272" xlink:href="#linearGradient2201" y1="838.20184" y2="843.22455"/>
<linearGradient gradientTransform="matrix(.80989,-8.088177e-2,.12209,1.22254,1.67929,116.4401)" gradientUnits="userSpaceOnUse" id="linearGradient5072" x1="432.33322" x2="442.93881" xlink:href="#linearGradient2168" y1="816.66492" y2="835.01398"/>
<linearGradient gradientUnits="userSpaceOnUse" id="linearGradient5092" x1="391.05708" x2="584.43697" xlink:href="#linearGradient3483"/>
<linearGradient gradientTransform="matrix(.86745,-9.366999e-2,.43221,.63112,-2.06733,133.5799)" gradientUnits="userSpaceOnUse" id="linearGradient5096" x1="309.1568" x2="302.30682" xlink:href="#linearGradient4902" y1="900.83911" y2="958.59302"/>
<linearGradient gradientTransform="matrix(.75888,.31614,-.46778,1.12287,639.9242,-47.66441)" gradientUnits="userSpaceOnUse" id="linearGradient5114" spreadMethod="reflect" x1="423.76266" x2="448.11847" xlink:href="#linearGradient2201" y1="614.40485" y2="654.13196"/>
<linearGradient gradientTransform="matrix(.93728,.39046,-.37874,.90913,637.6169,-42.12581)" gradientUnits="userSpaceOnUse" id="linearGradient5117" spreadMethod="reflect" x1="370.79483" x2="381.52863" xlink:href="#linearGradient2168" y1="747.38092" y2="754.62958"/>
<linearGradient gradientTransform="matrix(.75133,.313,-.47247,1.13414,639.9242,-47.66441)" gradientUnits="userSpaceOnUse" id="linearGradient5120" x1="432.33322" x2="442.93881" xlink:href="#linearGradient2168" y1="816.66492" y2="835.01398"/>
<linearGradient gradientTransform="matrix(.75133,.313,-.47247,1.13414,639.9242,-47.66441)" gradientUnits="userSpaceOnUse" id="linearGradient5123" spreadMethod="reflect" x1="469.01181" x2="491.66272" xlink:href="#linearGradient2201" y1="838.20184" y2="843.22455"/>
<linearGradient gradientTransform="matrix(.59496,.24785,-.59666,1.43223,639.9242,-47.66441)" gradientUnits="userSpaceOnUse" id="linearGradient5126" spreadMethod="reflect" x1="608.26611" x2="572.03137" xlink:href="#linearGradient2201" y1="588.04816" y2="590.56244"/>
<linearGradient gradientTransform="matrix(1.12534,.46881,-.31545,.75721,639.9242,-47.66441)" gradientUnits="userSpaceOnUse" id="linearGradient5138" x1="293.23529" x2="310.45273" xlink:href="#linearGradient2168" y1="923.83136" y2="927.11578"/>
<linearGradient gradientTransform="matrix(1.12534,.46881,-.31545,.75721,639.9242,-47.66441)" gradientUnits="userSpaceOnUse" id="linearGradient5141" x1="293.05011" x2="311.93381" xlink:href="#linearGradient2168" y1="901.66022" y2="937.79065"/>
<linearGradient gradientTransform="matrix(1.12534,.46881,-.31545,.75721,639.9242,-47.66441)" gradientUnits="userSpaceOnUse" id="linearGradient5144" x1="299.34467" x2="301.38113" xlink:href="#linearGradient2168" y1="959.68787" y2="945.18097"/>
<linearGradient gradientTransform="matrix(1.12534,.46881,-.31545,.75721,639.9242,-47.66441)" gradientUnits="userSpaceOnUse" id="linearGradient5147" x1="309.1568" x2="302.30682" xlink:href="#linearGradient3483" y1="900.83911" y2="958.59302"/>
<linearGradient gradientTransform="matrix(1.24065,.2209,-.13911,.78126,458.0836,-135.9438)" gradientUnits="userSpaceOnUse" id="linearGradient5156" x1="336.15353" x2="345.40002" xlink:href="#linearGradient2168" y1="1203.6084" y2="608.36353"/>
<linearGradient gradientTransform="matrix(.8384,.14928,-.20585,1.1561,458.0836,-135.9438)" gradientUnits="userSpaceOnUse" id="linearGradient5165" x1="-683.49762" x2="1100.712" xlink:href="#linearGradient3475" y1="-283.38879" y2="504.57803"/>
<linearGradient gradientTransform="matrix(1.19361,.21253,-.14459,.81205,0,0)" gradientUnits="userSpaceOnUse" id="linearGradient5174" x1="681.0025" x2="606.2608" xlink:href="#linearGradient2077" y1="1.50284" y2="160.01575"/>
<linearGradient gradientTransform="matrix(.33802,.14082,-1.05019,2.52092,639.9242,-47.66441)" gradientUnits="userSpaceOnUse" id="linearGradient5183" x1="1062.9684" x2="1074.9819" xlink:href="#linearGradient2201" y1="281.09448" y2="396.19681"/>
<linearGradient gradientTransform="matrix(.55499,1.758837e-2,9.212311e-2,.42968,275.0437,290.5688)" gradientUnits="userSpaceOnUse" id="linearGradient5187" x1="309.1568" x2="302.30682" xlink:href="#linearGradient3483" y1="900.83911" y2="958.59302"/>
<linearGradient gradientTransform="matrix(.49907,.54378,-.99819,.91612,586.8743,-250.8908)" gradientUnits="userSpaceOnUse" id="linearGradient5193" x1="878.35034" x2="921.75513" xlink:href="#linearGradient2077" y1="504.52991" y2="572.12531"/>
<linearGradient gradientTransform="matrix(.73148,9.852137e-2,-.18085,1.34274,97.83630,-77.66465)" gradientUnits="userSpaceOnUse" id="linearGradient5195" x1="878.35034" x2="921.75513" xlink:href="#linearGradient2168" y1="504.52991" y2="572.12531"/>
<radialGradient cx="413.88809" cy="440.37405" gradientTransform="matrix(.96831,-.21503,.29652,1.33529,-211.5998,-61.66705)" gradientUnits="userSpaceOnUse" id="radialGradient2232" r="359.53452">
<stop offset="0" stop-color="#00f1ff" stop-opacity="0"/>
<stop offset=".5" stop-color="#00c9ff" stop-opacity="0"/>
<stop offset=".75" stop-color="#0065a6" stop-opacity="0"/>
<stop offset="1" stop-color="#002454"/>
</radialGradient>
<radialGradient cx="413.88809" cy="440.37405" gradientTransform="matrix(.94215,-.31018,.42774,1.29921,-214.4049,82.07592)" gradientUnits="userSpaceOnUse" id="radialGradient5028" r="359.53452">
<stop offset="0" stop-color="#f00" stop-opacity="0"/>
<stop offset=".5" stop-color="#f00" stop-opacity="0"/>
<stop offset=".75" stop-color="#a60000" stop-opacity="0"/>
<stop offset="1" stop-color="#540000"/>
</radialGradient>
<radialGradient cx="413.88809" cy="440.37405" gradientTransform="matrix(.97653,.17388,-.23978,1.34663,466.0033,-180.4227)" gradientUnits="userSpaceOnUse" id="radialGradient5153" r="359.53452">
<stop offset="0" stop-color="#ffdf00" stop-opacity="0"/>
<stop offset=".5" stop-color="#ff9f00" stop-opacity="0"/>
<stop offset=".75" stop-color="#ff9a00" stop-opacity="0"/>
<stop offset="1" stop-color="#793900"/>
</radialGradient>
<radialGradient cx="457.14285" cy="263.79074" gradientUnits="userSpaceOnUse" id="radialGradient2217" r="94.28571" xlink:href="#linearGradient2077"/>
<radialGradient cx="480.13391" cy="516.86877" gradientTransform="scale(.83995,1.19054)" gradientUnits="userSpaceOnUse" id="radialGradient2223" r="175.43748" xlink:href="#linearGradient2077"/>
<radialGradient cx="478.65665" cy="290.04428" gradientTransform="matrix(.96831,-.21503,.29652,1.33529,-211.5998,-61.66705)" gradientUnits="userSpaceOnUse" id="radialGradient2249" r="372.48581" xlink:href="#linearGradient2065"/>
<radialGradient cx="462.46451" cy="233.67064" gradientTransform="matrix(.96831,-.21503,.29652,1.33529,-211.5998,-61.66705)" gradientUnits="userSpaceOnUse" id="radialGradient2252" r="330.32794" xlink:href="#linearGradient2053"/>
<radialGradient cx="214.76448" cy="1378.8025" gradientTransform="matrix(1.46863,0,0,.42526,72.66462,179.8293)" gradientUnits="userSpaceOnUse" id="radialGradient2155" r="15.40581" xlink:href="#linearGradient2077"/>
<radialGradient cx="378.57144" cy="752.36218" gradientUnits="userSpaceOnUse" id="radialGradient2169" r="8.57143" xlink:href="#linearGradient2077"/>
<radialGradient cx="269.78928" cy="1031.8398" gradientTransform="scale(1.39262,.71807)" gradientUnits="userSpaceOnUse" id="radialGradient2179" r="32.82607" xlink:href="#linearGradient2168"/>
<radialGradient cx="376.40165" cy="753.87375" gradientUnits="userSpaceOnUse" id="radialGradient2242" r="27.90206" xlink:href="#linearGradient2201"/>
<radialGradient cx="247.70894" cy="1161.0876" fx="247.70892" fy="1161.4192" gradientTransform="scale(1.58039,.63275)" gradientUnits="userSpaceOnUse" id="radialGradient2333" r="14.64712" xlink:href="#linearGradient2168"/>
<radialGradient cx="247.70894" cy="1161.0876" fx="247.70892" fy="1161.4192" gradientTransform="matrix(1.57257,-.15705,6.287884e-2,.62962,-17.72450,122.4103)" gradientUnits="userSpaceOnUse" id="radialGradient4986" r="14.64712" xlink:href="#linearGradient2168"/>
<radialGradient cx="370.70612" cy="771.54883" gradientTransform="matrix(1.01034,-.1009,9.786941e-2,.97999,-18.32070,116.4401)" gradientUnits="userSpaceOnUse" id="radialGradient5004" r="27.47986" xlink:href="#linearGradient2201"/>
<radialGradient cx="378.57144" cy="752.36218" gradientTransform="matrix(.44933,-.21734,.43543,.90022,-57.84930,230.6680)" gradientUnits="userSpaceOnUse" id="radialGradient5007" r="8.57143" xlink:href="#linearGradient2077"/>
<radialGradient cx="214.76448" cy="1378.8025" gradientTransform="matrix(1.46136,-.14594,4.225951e-2,.42316,92.45066,294.1286)" gradientUnits="userSpaceOnUse" id="radialGradient5010" r="15.40581" xlink:href="#linearGradient2077"/>
<radialGradient cx="269.78928" cy="1031.8398" gradientTransform="matrix(1.30387,-.33682,.14896,.45905,-58.59000,432.3650)" gradientUnits="userSpaceOnUse" id="radialGradient5025" r="32.82607" xlink:href="#linearGradient2168"/>
<radialGradient cx="480.13391" cy="516.86877" gradientTransform="matrix(.38873,-.31541,.42025,.51793,-35.16140,543.4882)" gradientUnits="userSpaceOnUse" id="radialGradient5034" r="175.43748" xlink:href="#linearGradient2077"/>
<radialGradient cx="480.13391" cy="516.86877" gradientTransform="matrix(.65225,-.52924,.75014,.92449,-378.4141,379.6918)" gradientUnits="userSpaceOnUse" id="radialGradient5037" r="175.43748" xlink:href="#linearGradient2077"/>
<radialGradient cx="457.14285" cy="263.79074" gradientTransform="matrix(1.15133,-.37905,.37905,1.15133,-309.8813,102.1638)" gradientUnits="userSpaceOnUse" id="radialGradient5043" r="94.28571" xlink:href="#linearGradient2077"/>
<radialGradient cx="457.14285" cy="263.79074" gradientTransform="matrix(.40297,-.13267,.13267,.40297,97.22168,186.9416)" gradientUnits="userSpaceOnUse" id="radialGradient5046" r="94.28571" xlink:href="#linearGradient2077"/>
<radialGradient cx="478.65665" cy="290.04428" gradientTransform="matrix(.94215,-.31018,.42774,1.29921,-214.4049,82.07592)" gradientUnits="userSpaceOnUse" id="radialGradient5052" r="372.48581" xlink:href="#linearGradient4894"/>
<radialGradient cx="462.46451" cy="233.67064" gradientTransform="matrix(.94215,-.31018,.42774,1.29921,-214.4049,82.07592)" gradientUnits="userSpaceOnUse" id="radialGradient5055" r="330.32794" xlink:href="#linearGradient4902"/>
<radialGradient cx="893.91394" cy="318.43384" gradientTransform="scale(.72831,1.37304)" gradientUnits="userSpaceOnUse" id="radialGradient5082" r="179.96289" xlink:href="#linearGradient4902"/>
<radialGradient cx="247.70894" cy="1161.0876" fx="247.70892" fy="1161.4192" gradientTransform="matrix(1.45886,.60775,-.24333,.5841,637.6169,-42.12581)" gradientUnits="userSpaceOnUse" id="radialGradient5111" r="14.64712" xlink:href="#linearGradient2168"/>
<radialGradient cx="370.70612" cy="771.54883" gradientTransform="matrix(.93728,.39046,-.37874,.90913,639.9242,-47.66441)" gradientUnits="userSpaceOnUse" id="radialGradient5129" r="27.47986" xlink:href="#linearGradient2201"/>
<radialGradient cx="378.57144" cy="752.36218" gradientTransform="matrix(.49865,2.183142e-2,-4.373857e-2,.99904,550.9386,34.14071)" gradientUnits="userSpaceOnUse" id="radialGradient5132" r="8.57143" xlink:href="#linearGradient2077"/>
<radialGradient cx="214.76448" cy="1378.8025" gradientTransform="matrix(1.35569,.56477,-.16354,.39256,635.5392,151.8184)" gradientUnits="userSpaceOnUse" id="radialGradient5135" r="15.40581" xlink:href="#linearGradient2077"/>
<radialGradient cx="269.78928" cy="1031.8398" gradientTransform="matrix(1.30761,.32203,-8.663122e-2,.47478,436.9985,201.8591)" gradientUnits="userSpaceOnUse" id="radialGradient5150" r="32.82607" xlink:href="#linearGradient2168"/>
<radialGradient cx="480.13391" cy="516.86877" gradientTransform="matrix(.49183,-9.325753e-2,.12426,.65531,404.9078,310.7969)" gradientUnits="userSpaceOnUse" id="radialGradient5159" r="175.43748" xlink:href="#linearGradient2077"/>
<radialGradient cx="480.13391" cy="516.86877" gradientTransform="matrix(.82525,-.15648,.22179,1.1697,180.4389,3.77043)" gradientUnits="userSpaceOnUse" id="radialGradient5162" r="175.43748" xlink:href="#linearGradient2077"/>
<radialGradient cx="457.14285" cy="263.79074" gradientTransform="matrix(1.19335,.21248,-.21248,1.19335,372.4245,-208.0315)" gradientUnits="userSpaceOnUse" id="radialGradient5168" r="94.28571" xlink:href="#linearGradient2077"/>
<radialGradient cx="457.14285" cy="263.79074" gradientTransform="matrix(.41767,7.436942e-2,-7.436942e-2,.41767,690.5870,59.72312)" gradientUnits="userSpaceOnUse" id="radialGradient5171" r="94.28571" xlink:href="#linearGradient2077"/>
<radialGradient cx="478.65665" cy="290.04428" gradientTransform="matrix(.97653,.17388,-.23978,1.34663,466.0033,-180.4227)" gradientUnits="userSpaceOnUse" id="radialGradient5177" r="372.48581" xlink:href="#linearGradient3475"/>
<radialGradient cx="462.46451" cy="233.67064" gradientTransform="matrix(.97653,.17388,-.23978,1.34663,466.0033,-180.4227)" gradientUnits="userSpaceOnUse" id="radialGradient5180" r="330.32794" xlink:href="#linearGradient3483"/>
</defs>
<g transform="translate(164.0884,17.00553)">
<path d="m369.75644,746.34687 40.3331,399.15813h7.11168l-37.38386-400.16828-10.06092,1.01015z" fill="url(#linearGradient2199)" fill-rule="evenodd"/>
<path d="m558.5377,282.82738c39.6602,178.59803-67.947,439.46609-174.54445,466.06426-103.80826,25.97878-315.74333-169.78404-355.40348-348.38207s46.86024-349.90796 193.12588-382.38825 297.16195,86.10804 336.82205,264.70606z" fill="url(#radialGradient2252)" fill-rule="evenodd" opacity=".75"/>
<path d="m558.53773,282.82738c39.66015,178.59803-67.94701,439.46609-174.54448,466.06426-103.80826,25.97878-315.74333-169.78404-355.40348-348.38207s46.86025-349.90796 193.12588-382.38825 297.16194,86.10804 336.82208,264.70606z" fill="url(#radialGradient2249)" fill-rule="evenodd"/>
<path d="m171.19435,67.38792c-12.1574.12378-36.5156,19.76319-45.86994,30.67325-19.23391,22.43271-30.83772,37.64959-41.84596,61.97382-16.9002,37.34331 4.57498,39.08376 32.84704,16.1198 21.59941-17.54411-12.85782,35.6029-15.8121,47.41242-4.93394,19.72314-24.96417,31.74966-34.40544,42.7611-9.84803,11.48586-7.24606,33.21299-27.58828,47.10074-22.19773,15.15451 18.2547,23.31475 29.74617,28.51536 18.36146,8.30972-10.75956,46.53266 27.88802,20.14776 22.78957-15.55855 16.76949-31.54719 31.91996-1.23478 4.99663,9.99704 47.58758-37.13368 49.5902-40.2796 2.33964-3.67535-3.85428-56.89591-4.63938-60.43134-.01593-.07178 13.06056-19.12393 28.82306-15.18078 24.44972,6.11635 16.73923,28.76122 38.73712,3.10487 11.17647-13.03524 25.82521,50.39768 26.3336,52.68709 7.29089,32.83242 48.78801-4.8665 62.28948,3.72822 14.42102,9.18007 9.08421,39.31163 25.71422,49.8979 13.11922,8.35138 43.27771-30.36328 47.42038-36.87102 13.55646-21.29591.68902-23.51057 38.11774.31566 26.36268,16.78184 22.40623-31.9733 58.26152-1.2308 21.82045,18.70897 6.77018-20.07642 7.13283-33.7781 .61195-23.12154-11.94239-57.19073-20.13185-77.47822-4.63447-11.48084 44.37319,16.12365 36.5673,6.51344-14.23783-17.52891-32.69437-32.14504-45.858-48.35144-17.055-20.99726-24.40461-34.87793-36.55934-59.19656-10.50141-21.01075-5.94652-25.33966-22.61731-35.9519-17.60285-11.20555-33.64759,17.92787-44.93491-4.6553-7.85116-15.70825-37.86897,9.42237-52.68312-.00796-4.17168-2.65559-16.65582-32.66569-19.82812-36.57128-6.98218-8.59611-42.54232,3.59363-54.23355,6.18982l-11.15681,2.47752c-12.79632,2.8416-28.61106,3.42673-42.45738,6.50149-1.00717.22366-12.54577,19.48605-20.76714,25.09882z" fill="url(#linearGradient2246)" fill-rule="evenodd" opacity=".6"/>
<path d="m551.42857,263.79074c0,52.07256-42.21315,94.28572-94.28571,94.28572s-94.28572-42.21316-94.28572-94.28572 42.21315-94.28571 94.28572-94.28571 94.28571,42.21315 94.28571,94.28571z" fill="url(#radialGradient2217)" fill-rule="evenodd" transform="matrix(.41416,-9.196867e-2,9.196867e-2,.41416,88.06354,73.64696)"/>
<path d="m551.42857,263.79074c0,52.07256-42.21315,94.28572-94.28571,94.28572s-94.28572-42.21316-94.28572-94.28572 42.21315-94.28571 94.28572-94.28571 94.28571,42.21315 94.28571,94.28571z" fill="url(#radialGradient2217)" fill-rule="evenodd" opacity=".6" transform="matrix(1.1833,-.26277,.26277,1.1833,-308.5998,-51.16643)"/>
<path d="m221.72178,18.12854c-146.26564,32.48028-232.79961,203.77042-193.13948,382.36844s251.60684,374.37199 355.4151,348.39324c106.59747-26.59816 214.21051-287.48126 174.55034-466.07931s-190.56031-297.16266-336.82596-264.68237zm-5.24443,5.35807c5.19988-1.60393 11.04073-2.42969 17.64967-2.25477 19.36816.51262 32.66348,26.51405 38.09101,26.6577 20.47909.54202 30.72048-19.31686 45.57521-18.92369 18.57991.49176 21.1887,8.72085 32.84219,16.13917 10.82331,6.88987 24.28688,20.22783 38.73799,29.42705 11.8372,7.53528 32.71484,24.00185 47.10364,27.60135 13.50799,3.37917 31.70146,11.00219 34.6984,24.49806 6.33242,28.51621-14.44817,21.3751-14.89944,38.42495-.62,23.42547 41.67586,16.27683 48.03993,44.9356 6.57962,29.62946-30.81634,41.32588-22.0186,45.86391 .17767.09165 72.1986,61.5273 30.99498,60.43678-23.06677-.61051-67.77833-34.50402-74.69763-6.8446-2.51445,10.05136-25.86308,61.41313-44.01567,39.06457-38.87266-47.85806-17.13237,7.84114-68.79507,6.47379-17.01433-.45032-14.75067-19.04691-14.25407-37.80907 2.07211-78.29055-54.60929-11.47094-55.15909-37.49664-1.65879-78.52086 6.57761-10.145-17.64668-39.96872-14.5934-17.96667-25.61401-36.77456-52.06315-23.55499-40.78224,20.38343-6.40496,29.47604-4.95051,56.70285 1.35241,25.31658-31.74882,21.71515-17.67557,39.04143 4.72493,5.81711 30.88217,53.18768 22.31629,47.73486l-10.25237-6.52641c-36.7455-23.3913-37.03749,43.62877-65.06173-3.09431-21.78677-36.32371-21.00145,20.85693-50.22169,37.49766-11.17574,33.51036-15.3723,9.77134-19.19722-7.45311-3.45579-15.56218-.49431-28.60609-4.32829-45.87129-6.25423-28.16411 15.77116-21.03045 28.81057-41.51411 7.5872-11.91875 36.25758-30.44567 9.31668-37.18522-14.14979-3.53972-37.51133,6.53359-19.84421-10.22246 11.35839-10.77264 59.7583-50.38866 37.20734-69.72398-12.69846-10.88771-49.65753-41.66336-8.37465-50.83079 36.84865-8.18275 45.98869-9.05098 46.79858-39.65053 .65948-24.91703 38.07993-10.89386 51.46141-31.9149 8.28071-13.00821 18.21209-24.84834 33.81174-29.66014z" fill="url(#linearGradient2241)" fill-rule="evenodd" opacity=".4"/>
<path d="m568.57143,602.36218c0,128.60346-73.55322,232.85716-164.28572,232.85716s-164.28573-104.2537-164.28573-232.85716 73.55322-232.85716 164.28573-232.85716 164.28572,104.2537 164.28572,232.85716z" fill="url(#radialGradient2223)" fill-rule="evenodd" opacity=".53" transform="matrix(.8353,-.54979,.54979,.8353,-404.3723,218.1777)"/>
<path d="m568.57143,602.36218c0,128.60346-73.55322,232.85716-164.28572,232.85716s-164.28573-104.2537-164.28573-232.85716 73.55322-232.85716 164.28573-232.85716 164.28572,104.2537 164.28572,232.85716z" fill="url(#radialGradient2223)" fill-rule="evenodd" opacity=".3" transform="matrix(.49782,-.32766,.30801,.46797,-79.09553,415.2735)"/>
<path d="m223.16443,647.35804c-18.33547-24.26181-60.96692-66.67932-84.57-101.25218-13.36666-19.57896-23.25933-50.6127 1.32235-49.9621 37.2676.98637 32.96296,59.58347 31.55619-7.00748-.0903-4.27429 28.97829,44.92699 54.78256,4.39093 20.49078-32.18905 27.58552,49.66761 31.54494,67.49771 1.54016,6.93566 35.92306,12.72554 49.96211,1.32234 35.29646-28.66953 6.93294,34.37252 6.5667,48.21023-.89095,33.66244 73.16413-41.60743 76.70346-46.00632 32.96072-40.96552 50.84525-10.70606 72.75894-45.13038 23.00621-36.14057 48.39476-65.38249 66.19224-93.34062 14.0998-22.14944-23.01032-31.22687 10.08733-47.76944 25.05984-12.52519 21.80045,45.5616 16.20762,54.3474-13.63784,21.42375-38.60825,14.17509-39.45087,46.01195-.52715,19.91714-.87959,33.31696 4.37405,56.97522 4.69258,21.13167-20.48176,53.45702-30.25074,68.80316-13.8276,21.72182-3.48801,30.22847-31.56183,44.26007-19.25584,9.62429-21.79228,50.29278-39.45087,46.01194-13.72194,11.14564-36.20488,27.07939-46.0232,35.05431-18.36296,14.9153-39.25844-16.11635-68.36801-9.65217-21.97327,4.87946-45.83027-9.48917-58.2863-20.16903-11.99802-10.28716-20.75043-37.52668-24.09667-52.59554z" fill="url(#linearGradient2235)" fill-rule="evenodd" opacity=".1"/>
<path d="m558.53773,282.82738c39.66015,178.59803-67.94701,439.46609-174.54448,466.06426-103.80826,25.97878-315.74333-169.78404-355.40348-348.38207s46.86025-349.90796 193.12588-382.38825 297.16194,86.10804 336.82208,264.70606z" fill="url(#radialGradient2232)" fill-rule="evenodd"/>
<path d="m421.42858,740.93359c.00747,13.02086-20.4617,23.5784-45.71428,23.5784s-45.72176-10.55754-45.71429-23.5784c-.00747-13.02086 20.4617-23.5784 45.71429-23.5784s45.72175,10.55754 45.71428,23.5784z" fill="url(#radialGradient2179)" fill-rule="evenodd" opacity=".3" transform="matrix(.95567,-.14762,.1429,.65673,-91.36538,302.3721)"/>
<path d="m372.7463,735.2352c-5.93553,3.64917-15.4087,17.30853-18.18275,24.24365-1.54331,3.85828-9.09173,5.05094-13.13199,7.07107-7.94847,3.97424-3.73943,11.11168 4.04062,11.11168 10.3626,0 20.27452.0143 30.30457,2.02031 7.56478,1.51295 15.43276,1.01015 23.23351,1.01015 7.9438,0 8.9786-5.27632 7.07107-9.09137-1.7358-3.47161-10.95567-7.76919-13.13199-12.12184-2.06564-4.13127-1.89532-18.34154-7.07106-22.22335-.38095-.28571-6.7176-5.96386-13.13198-2.0203z" fill="url(#linearGradient2122)" fill-rule="evenodd"/>
<path d="m372.7463,735.2352c-5.93553,3.64917-15.4087,17.30853-18.18275,24.24365-1.54331,3.85828-9.09173,5.05094-13.13199,7.07107-7.94847,3.97424-3.73943,11.11168 4.04062,11.11168 10.3626,0 20.27452.0143 30.30457,2.02031 7.56478,1.51295 15.43276,1.01015 23.23351,1.01015 7.9438,0 8.9786-5.27632 7.07107-9.09137-1.7358-3.47161-10.95567-7.76919-13.13199-12.12184-2.06564-4.13127-1.89532-18.34154-7.07106-22.22335-.38095-.28571-6.7176-5.96386-13.13198-2.0203z" fill="url(#linearGradient2126)" fill-rule="evenodd"/>
<path d="m372.7463,735.2352c-5.93553,3.64917-15.4087,17.30853-18.18275,24.24365-1.54331,3.85828-9.09173,5.05094-13.13199,7.07107-7.94847,3.97424-3.73943,11.11168 4.04062,11.11168 10.3626,0 20.27452.0143 30.30457,2.02031 7.56478,1.51295 15.43276,1.01015 23.23351,1.01015 7.9438,0 8.9786-5.27632 7.07107-9.09137-1.7358-3.47161-10.95567-7.76919-13.13199-12.12184-2.06564-4.13127-1.89532-18.34154-7.07106-22.22335-.38095-.28571-6.7176-5.96386-13.13198-2.0203z" fill="url(#linearGradient2140)" fill-rule="evenodd" opacity=".46759"/>
<path d="m372.7463,735.2352c-5.93553,3.64917-15.4087,17.30853-18.18275,24.24365-1.54331,3.85828-9.09173,5.05094-13.13199,7.07107-7.94847,3.97424-3.73943,11.11168 4.04062,11.11168 10.3626,0 20.27452.0143 30.30457,2.02031 7.56478,1.51295 15.43276,1.01015 23.23351,1.01015 7.9438,0 8.9786-5.27632 7.07107-9.09137-1.7358-3.47161-10.95567-7.76919-13.13199-12.12184-2.06564-4.13127-1.89532-18.34154-7.07106-22.22335-.38095-.28571-6.7176-5.96386-13.13198-2.0203z" fill="url(#linearGradient2144)" fill-rule="evenodd" opacity=".50926"/>
<path d="m358.60416,766.35602c3.38261.43801 11.26558-.30613 16.5762-1.53786 4.49476-1.0425 7.2171-1.31315 9.94572-3.84464 3.94822-3.66294 3.84241-.52886 9.11692,1.895 2.93029,3.12865 7.17619,2.08277 10.14682,8.10106 2.93029,2.71857-11.80444,0-15.94849,0-4.45201,0-8.29972-.76893-12.43215-.76893-2.85089,0-8.66562-1.04872-10.77454-1.53785-3.28182-.76117-1.58593-1.37077-6.63048-2.30678z" fill="url(#radialGradient2155)" fill-rule="evenodd" opacity=".67593"/>
<path d="m387.14287,752.36218c0,4.73387-3.83756,8.57143-8.57143,8.57143s-8.57143-3.83756-8.57143-8.57143 3.83756-8.57143 8.57143-8.57143 8.57143,3.83756 8.57143,8.57143z" fill="url(#radialGradient2169)" fill-rule="evenodd" opacity=".46759" transform="matrix(.4687,-.17161,.34381,.93904,-50.68410,103.7345)"/>
<path d="m384.09818,745.83018c-.3158.0821-.62775-.17836-.94162-.26754 7.03115,1.46324.11247-.14806 1.18333-1.55781-.28866-.20965-.10011.09788-.23015.22502l4.0129-9.42322c1.896,1.22042 3.96002,1.8661 5.07911,4.06179 4.66219,11.93872-2.83895,20.79701-15.45718,15.35066-8.58538-7.90092-5.36677-17.92695 6.35361-18.75347v10.36457z" fill="url(#radialGradient2242)"/>
<path d="m389.0604,848.98409c19.50278,32.60261-39.40692,32.93633-38.03936,67.42249 1.3817,34.84275 31.45789,19.78749 50.02213,50.33052l1.35775,12.08841c-27.17547-37.96446-52.08428-27.65244-53.15944-61.72023s44.8522-45.57023 40.61008-61.81952l-.79116-6.30167z" fill="url(#linearGradient2264)"/>
<path d="m395.35344,1000.7138c-9.28636,13.3019-34.1071,17.9428-33.95623,2.474 .35989-36.89804 41.699-9.7649 42.91945,20.404 .59378,14.6781-36.30752,13.9914-42.14546,26.9099l-1.06111-8.487c4.89862-11.0058 39.14498-9.5745 37.4479-17.7296-5.80737-27.9067-21.85017-36.13172-32.51977-27.46882 1.285,15.13082 21.25598,9.91752 28.94013-3.58452l.37509,7.48204z" fill="url(#linearGradient2317)"/>
<path d="m409.78714,998.30148c-9.28636,9.01312-48.5408,18.33462-48.38993,7.85312l4.64101-4.3172c1.285,10.2524 35.68968.5431 43.37383-8.60564l.37509,5.06972z" fill="url(#linearGradient2321)"/>
<path d="m384.09818,745.83018c-.3158.0821-.62775-.17836-.94162-.26754 7.03115,1.46324.11247-.14806 1.18333-1.55781-.28866-.20965-.10011.09788-.23015.22502l4.0129-9.42322c1.896,1.22042 3.96002,1.8661 5.07911,4.06179 4.66219,11.93872-2.83895,20.79701-15.45718,15.35066-8.58538-7.90092-5.36677-17.92695 6.35361-18.75347v10.36457z" fill="url(#linearGradient2327)"/>
<path d="m392.32515,736.54972c-9.7508,22.19087-12.98969,1.44245-21.29261,2.75334-12.74326-.02489-32.12939,6.30881-38.98902,16.55547-9.40429,14.0478-13.05095,28.86838-5.66896,47.7496 7.43033,19.00486 29.43028,25.71191 53.5006,39.27385l.31106,4.00815c-18.27387-14.3059-48.77376-14.91844-58.93857-36.5088-10.30266-21.88314-9.61467-39.62651 10.16196-58.70505 10.47324-9.74327 22.83122-17.6171 37.494-17.93684l23.42154,2.81028z" fill="url(#linearGradient2256)"/>
<path d="m392.32515,736.54972c-9.7508,22.19087-12.98969,1.44245-21.29261,2.75334-12.74326-.02489-16.79171-5.24388-2.12893-5.56362l23.42154,2.81028z" fill="url(#radialGradient2333)" opacity=".63889"/>
</g>
<path d="m695.61968,790.55803-117.57791,373.77997 10.2572,2.2731 113.30401-374.65478-5.9833-1.39829z" fill="url(#linearGradient5183)" fill-rule="evenodd"/>
<path d="m1044.4406,433.74146c-32.0705,180.11559-231.72122,379.54216-340.34992,363.10227-105.8158-15.93905-226.17151-278.14881-194.10089-458.26437s177.81594-304.98001 325.32439-278.71527 241.19712,193.76183 209.12642,373.87737z" fill="url(#radialGradient5180)" fill-rule="evenodd" opacity=".75"/>
<path d="m1044.4407,433.74148c-32.0706,180.11556-231.7213,379.54215-340.35002,363.10225-105.8158-15.93905-226.17151-278.14881-194.10089-458.26437s177.81594-304.98001 325.32439-278.71527 241.19712,193.76183 209.12652,373.87739z" fill="url(#radialGradient5177)" fill-rule="evenodd"/>
<path d="m769.73215,85.91388c-11.27011-4.56094-41.30764,4.20113-54.13817,10.67495-26.38147,13.31114-42.94471,22.89555-62.46045,41.11598-29.96119,27.97257-10.80673,37.8376 24.12217,27.51173 26.68513-7.8888-25.56038,27.92052-32.8289,37.68582-12.13917,16.30907-35.25397,19.70802-48.20373,26.24199-13.50768,6.81549-19.4611,27.87243-43.57964,32.8695-26.31851,5.45288 7.8851,28.54183 16.49296,37.76163 13.75392,14.73172-27.82657,38.81669 17.99551,29.32292 27.02021-5.59825 27.6116-22.67244 29.94019,11.13518 .76797,11.14976 58.20812-15.97804 61.26653-18.11193 3.5731-2.49299 18.32177-54.00286 18.95661-57.56833 .0129-.07239 19.41044-12.6308 32.44446-2.92931 20.21748,15.04829 4.3917,32.98668 34.56428,17.7627 15.32979-7.73487 4.45854,56.45339 4.04743,58.76225-5.89567,33.11139 46.90771,14.26945 56.06578,27.39532 9.7818,14.01982-6.73188,39.78199 4.54828,55.94935 8.89879,12.75425 51.62608-11.38567 57.95277-15.79988 20.70345-14.44506 9.67717-21.43766 35.06514,14.94979 17.88186,25.62926 32.97874-20.89813 54.25458,21.26867 12.94783,25.66145 13.97006-15.92905 19.57389-28.43763 9.45646-21.10819 10.96896-57.38534 11.21096-79.26204 .137-12.38019 34.7605,31.94773 31.2506,20.07473-6.4022-21.65619-17.8187-42.24593-23.7378-62.26823-7.6688-25.94119-9.1154-41.58079-10.9835-68.70352-1.6141-23.43342 4.2552-25.67783-7.05259-41.88486-11.94005-17.11313-37.95439,3.60986-39.68923-21.5773-1.20672-17.51951-38.58032-5.86494-48.62878-20.26696-2.82966-4.05562-2.81322-36.55883-4.23966-41.38401-3.13957-10.62012-40.65281-13.04262-52.44338-15.142l-11.2516-2.00341c-12.90505-2.29782-27.72867-7.83934-41.69264-10.32571-1.01573-.18086-19.07449,13.16304-28.82207,15.18262z" fill="url(#linearGradient5174)" fill-rule="evenodd" opacity=".6"/>
<path d="m901.28644,210.91109c-3.8726,21.74935-24.64331,36.24132-46.39266,32.36872s-36.24133-24.64331-32.36873-46.39267 24.64332-36.24132 46.39267-32.36872 36.24133,24.64331 32.36872,46.39267z" fill="url(#radialGradient5171)" fill-rule="evenodd"/>
<path d="m974.4217,223.93345c-11.06458,62.1409-70.40935,103.54646-132.55026,92.48188s-103.54645-70.40936-92.48187-132.55027 70.40934-103.54645 132.55026-92.48187 103.54645,70.40935 92.48187,132.55026z" fill="url(#radialGradient5168)" fill-rule="evenodd" opacity=".6"/>
<path d="m835.31706,59.87311c-147.50844-26.26475-293.25869,98.5762-325.32932,278.69175s88.29153,442.34008 194.10732,458.27916c108.62871,16.43991 308.29054-182.9983 340.36114-363.1139s-61.63068-347.59226-209.13914-373.85701zm-6.90161,2.92926c5.41681.51906 11.12606,2.00293 17.15951,4.70591 17.68164,7.92134 19.95555,37.03609 24.91047,39.25588 18.69583,8.3757 35.78652-6.01767 49.34774.05774 16.96203,7.59896 16.20566,16.19847 24.11025,27.52775 7.34146,10.52221 14.6405,28.012 24.44272,42.06107 8.0292,11.50789 20.96905,34.73682 32.86716,43.59282 11.1698,8.31389 25.0327,22.34712 22.6092,35.95766-5.1206,28.75851-21.557,14.17524-28.53019,29.74044-9.58072,21.38565 32.21169,31.05186 27.06549,59.95414-5.3206,29.88122-44.33874,26.29735-37.96267,33.86964 .12877.15292 42.98587,84.56031 5.37017,67.70855-21.05818-9.43402-49.29751-57.91525-66.32132-35.04367-6.1864,8.31147-47.49102,46.74471-55.65343,19.13405-17.47928-59.12654-18.83026.64981-65.99433-20.4796-15.53277-6.95865-6.29175-23.25468 1.38176-40.38307 32.01987-71.47325-45.99867-31.58917-36.49785-55.82495 28.66443-73.12058 9.97312-6.8354-.91946-43.6813-6.56199-22.19703-9.50244-43.79666-39.00133-41.76483-45.4847,3.13291-17.24762,24.74629-26.37525,50.43871-8.48723,23.88983-37.65805,7.83607-31.32995,29.24193 2.12459,7.18678 8.05372,60.97353 2.24347,52.64596l-6.95421-9.96714c-24.92454-35.72324-50.96705,26.03077-58.86861-27.87624-6.14289-41.90869-27.40712,11.17682-60.77964,15.30107-23.20295,26.63575-17.94782,3.10843-14.85484-14.26238 2.79449-15.6944 10.54435-26.5964 13.64463-44.0083 5.0574-28.40342 22.64576-13.34833 42.55958-27.24243 11.58718-8.08451 45.17747-14.16136 22.90003-30.74293-11.70046-8.70891-37.13927-8.39405-14.3871-17.06758 14.62763-5.57629 74.54021-23.53341 61.15891-50.05397-7.53503-14.93372-29.81702-57.55559 11.81664-50.14247 37.16175,6.61686 45.93281,9.33026 58.44767-18.60478 10.19076-22.74733 39.34092,4.58774 59.77714-9.67088 12.64632-8.82349 26.36718-15.93396 42.61764-14.3768z" fill="url(#linearGradient5165)" fill-rule="evenodd" opacity=".4"/>
<path d="m851.27406,489.66533c23.95823,126.3521-28.88537,242.48334-118.02948,259.38638s-180.83169-71.82294-204.78992-198.17504 28.88536-242.48334 118.02949-259.38637 180.83168,71.82293 204.78991,198.17503z" fill="url(#radialGradient5162)" fill-rule="evenodd" opacity=".53"/>
<path d="m800.69838,579.22706c13.42224,70.78689-18.76537,136.33738-71.89306,146.41111s-107.07707-39.144-120.49933-109.9309 18.76537-136.33738 71.89307-146.41111 107.07706,39.144 120.49932,109.9309z" fill="url(#radialGradient5159)" fill-rule="evenodd" opacity=".3"/>
<path d="m594.67479,641.27028c-7.59546-29.44712-30.63669-84.99694-39.12952-125.98789-4.80957-23.21359-2.00729-55.66515 20.43389-45.61155 34.02245,15.242 7.51496,67.67767 31.82432,5.66651 1.56035-3.98032 9.47295,52.61593 48.88128,25.12024 31.29355-21.8339 6.36424,56.45639 3.16252,74.438-1.24543,6.99459 28.26693,25.56138 45.61156,20.43388 43.60723-12.89141-6.81836,34.39541-12.47781,47.02817-13.76753,30.73122 83.53827-10.27215 88.49705-12.9717 46.17961-25.14007 51.05238,9.67007 84.51901-13.68001 35.13512-24.51422 69.81648-41.74415 96.99681-60.7082 21.53324-15.02401-9.23237-37.67431 27.68165-40.21687 27.94945-1.92511 2.60303,50.44145-5.93835,56.40087-20.82773,14.53177-41.09043-1.76199-54.1113,27.30261-8.14587,18.18281-13.62419,30.41667-17.87248,54.27595-3.79458,21.31123-39.46395,41.46985-54.38315,51.87916-21.11753,14.73395-14.84433,26.5626-46.15524,28.71923-21.47616,1.47924-39.45686,38.04496-54.1113,27.3026-16.95286,5.01169-43.8343,11.0742-55.96441,14.66017-22.68663,6.70674-30.04186-29.97409-59.39878-35.20126-22.15997-3.94572-38.65685-26.38377-46.04802-41.0324-7.11939-14.11-4.72363-42.62062-2.01773-57.81751z" fill="url(#linearGradient5156)" fill-rule="evenodd" opacity=".1"/>
<path d="m1044.4407,433.74148c-32.0706,180.11556-231.7213,379.54215-340.35002,363.10225-105.8158-15.93905-226.17151-278.14881-194.10089-458.26437s177.81594-304.98001 325.32439-278.71527 241.19712,193.76183 209.12652,373.87739z" fill="url(#radialGradient5153)" fill-rule="evenodd"/>
<path d="m743.31087,789.20353c-1.56387,8.61092-22.05716,10.85813-45.76815,5.01874s-41.65687-17.55314-40.07897-26.1606c1.56387-8.61092 22.05716-10.85813 45.76816-5.01873s41.65686,17.55313 40.07896,26.16059z" fill="url(#radialGradient5150)" fill-rule="evenodd" opacity=".3"/>
<path d="m698.96028,779.91238c-6.88241,1.08601-20.87989,10.05201-26.10756,15.38705-2.90835,2.96809-10.33495,1.16625-14.84137,1.47733-8.86556.61199-7.72494,8.81918-.54317,11.81104 9.56573,3.985 18.70993,7.80989 27.19726,13.51876 6.40124,4.30569 13.85754,6.86723 21.05842,9.86705 7.33293,3.05484 10.31719-1.4178 10.02345-5.67303-.26729-3.87216-7.1255-11.38481-7.46063-16.23966-.31809-4.60794 5.30378-17.65996 2.01882-23.23362-.24178-.41024-3.90758-8.08854-11.34522-6.91492z" fill="url(#linearGradient5147)" fill-rule="evenodd"/>
<path d="m698.96028,779.91238c-6.88241,1.08601-20.87989,10.05201-26.10756,15.38705-2.90835,2.96809-10.33495,1.16625-14.84137,1.47733-8.86556.61199-7.72494,8.81918-.54317,11.81104 9.56573,3.985 18.70993,7.80989 27.19726,13.51876 6.40124,4.30569 13.85754,6.86723 21.05842,9.86705 7.33293,3.05484 10.31719-1.4178 10.02345-5.67303-.26729-3.87216-7.1255-11.38481-7.46063-16.23966-.31809-4.60794 5.30378-17.65996 2.01882-23.23362-.24178-.41024-3.90758-8.08854-11.34522-6.91492z" fill="url(#linearGradient5144)" fill-rule="evenodd"/>
<path d="m698.96028,779.91238c-6.88241,1.08601-20.87989,10.05201-26.10756,15.38705-2.90835,2.96809-10.33495,1.16625-14.84137,1.47733-8.86556.61199-7.72494,8.81918-.54317,11.81104 9.56573,3.985 18.70993,7.80989 27.19726,13.51876 6.40124,4.30569 13.85754,6.86723 21.05842,9.86705 7.33293,3.05484 10.31719-1.4178 10.02345-5.67303-.26729-3.87216-7.1255-11.38481-7.46063-16.23966-.31809-4.60794 5.30378-17.65996 2.01882-23.23362-.24178-.41024-3.90758-8.08854-11.34522-6.91492z" fill="url(#linearGradient5141)" fill-rule="evenodd" opacity=".46759"/>
<path d="m698.96028,779.91238c-6.88241,1.08601-20.87989,10.05201-26.10756,15.38705-2.90835,2.96809-10.33495,1.16625-14.84137,1.47733-8.86556.61199-7.72494,8.81918-.54317,11.81104 9.56573,3.985 18.70993,7.80989 27.19726,13.51876 6.40124,4.30569 13.85754,6.86723 21.05842,9.86705 7.33293,3.05484 10.31719-1.4178 10.02345-5.67303-.26729-3.87216-7.1255-11.38481-7.46063-16.23966-.31809-4.60794 5.30378-17.65996 2.01882-23.23362-.24178-.41024-3.90758-8.08854-11.34522-6.91492z" fill="url(#linearGradient5138)" fill-rule="evenodd" opacity=".50926"/>
<path d="m673.93796,803.20159c2.95405,1.70513 10.51699,4.04966 15.8929,4.95488 4.55001.76615 7.16709,1.56321 10.65938.2757 5.05321-1.86296 3.75031.98943 7.6871,5.25524 1.50182,4.01492 5.82341,4.68225 6.25123,11.38012 1.65951,3.63637-10.89669-4.53947-14.72206-6.13309-4.10966-1.71205-7.36579-3.90151-11.18044-5.49066-2.63166-1.09633-7.59595-4.30049-9.3546-5.56301-2.73674-1.96468-.93683-1.87523-5.23351-4.67918z" fill="url(#radialGradient5135)" fill-rule="evenodd" opacity=".67593"/>
<path d="m711.08174,794.23424c-.20706,4.72935-2.28852,8.47945-4.64908,8.37611s-4.10633-4.02102-3.89929-8.75035 2.28852-8.47945 4.64909-8.3761 4.10632,4.02101 3.89928,8.75034z" fill="url(#radialGradient5132)" fill-rule="evenodd" opacity=".46759"/>
<path d="m705.36485,794.05805c-.32309-.04566-.51089-.40605-.76633-.60907 5.92776,4.05459.16076-.09343 1.6914-.98296-.18584-.30454-.13005.05185-.29899.11921l7.32807-7.1554c1.28088,1.85569 2.93788,3.24545 3.12655,5.70264-.28744,12.81352-10.61825,18.10601-20.17173,8.22606-4.88683-10.59491 1.93985-18.61221 13.07678-14.86803l-3.98575,9.56755z" fill="url(#radialGradient5129)"/>
<path d="m670.97827,891.47991c5.46551,37.59542-49.74368,14.95726-61.74314,47.31737-12.12354,32.69472 22.13066,30.65531 27.52182,65.98862l-3.39531,11.6809c-10.48626-45.49549-38.14641-45.84742-26.03792-77.70889s59.62867-24.52561 61.96153-41.15667l1.69302-6.12133z" fill="url(#linearGradient5126)"/>
<path d="m619.73757,1033.6696c-13.68757,8.7079-56.51243,6.6035-50.42454-7.6177 14.52156-33.92222 58.37566,3.865 47.90063,32.1833-5.09643,13.7777-38.89599-1.0468-49.25288,8.6333l2.28421-8.2425c8.75427-8.2756 39.81671,6.2152 41.38622-1.9654 5.3709-27.9939-22.40337-38.5992-35.58386-34.7055-4.63246,14.4614 33.9357,14.1724 46.22123,4.6636l-2.53101,7.0509z" fill="url(#linearGradient5123)"/>
<path d="m617.73757,1033.6696c-13.68757,8.7079-54.51243,6.6035-48.42454-7.6177l6.73432-4.0968c-4.63246,14.4614 31.9357,14.1724 44.22123,4.6636l-2.53101,7.0509z" fill="url(#linearGradient5120)"/>
<path d="m705.36485,794.05805c-.32309-.04566-.51089-.40605-.76633-.60907 5.92776,4.05459.16076-.09343 1.6914-.98296-.18584-.30454-.13005.05185-.29899.11921l7.32807-7.1554c1.28088,1.85569 2.93788,3.24545 3.12655,5.70264-.28744,12.81352-10.61825,18.10601-20.17173,8.22606-4.88683-10.59491 1.93985-18.61221 13.07678-14.86803l-3.98575,9.56755z" fill="url(#linearGradient5117)"/>
<path d="m716.52803,788.65498c-17.53461,16.73468-12.5455-3.66374-20.71405-5.64659-11.75374-4.92348-32.08476-6.53188-42.3573.28891-14.08328,9.35106-23.14886,21.62961-23.59542,41.89767-.44949,20.40078 19.38321,35.92868 36.38722,57.70411l-1.25422,3.81955c-11.36721-20.23312-41.38989-33.40388-42.47033-57.2429-1.09511-24.1623 6.3633-40.27665 31.95589-50.28285 13.41469-4.96647 27.85029-7.48248 41.50847-2.13897l20.53974,11.60107z" fill="url(#linearGradient5114)"/>
<path d="m716.52803,788.65498c-17.53461,16.73468-12.5455-3.66374-20.71405-5.64659-11.75374-4.92348-13.48387-11.29799.17431-5.95448l20.53974,11.60107z" fill="url(#radialGradient5111)" opacity=".63889"/>
<path d="m446.34869,827.92149 71.37969,339.84591 9.05668.8958-72.50583-342.34915-7.93054,1.60744z" fill="url(#linearGradient5058)" fill-rule="evenodd"/>
<path d="m586.15391,348.33413c57.21172,173.77282-23.93955,444.04284-127.3662,481.10227-100.71282,36.16594-331.05237-137.56721-388.26405-311.34002s11.85684-352.83257 154.1708-399.68695 304.24782,56.15189 361.45945,229.9247z" fill="url(#radialGradient5055)" fill-rule="evenodd" opacity=".75"/>
<path d="m586.15394,348.33413c57.21167,173.77282-23.93956,444.04284-127.36623,481.10227-100.71282,36.16594-331.05238-137.56721-388.26405-311.34002s11.85684-352.83257 154.1708-399.68695 304.24781,56.15189 361.45948,229.9247z" fill="url(#radialGradient5052)" fill-rule="evenodd"/>
<path d="m782.11478,437.22321a131.0687,247.09671 0 1,1 -262.13739,0 131.0687,247.09671 0 1,1 262.13739,0z" fill="url(#radialGradient5082)" fill-rule="evenodd" opacity=".15" transform="matrix(1.22025,0,0,1,-135.7938,0)"/>
<path d="m179.31902,172.45262c-12.08493,1.33129-34.37092,23.29403-42.59479,35.07965-16.9095,24.233-26.94372,40.52767-35.48029,65.82542-13.10563,38.83788 8.4362,38.43566 34.28632,12.77589 19.74908-19.60367-9.25621,36.70439-11.02231,48.74903-2.94957,20.11581-21.68554,34.07326-29.98583,45.9684-8.6579,12.40764-3.90972,33.76865-22.77117,49.60913-20.5819,17.28535 20.4812,21.38531 32.43259,25.41824 19.09633,6.44395-6.08221,47.37153 29.75212,17.27671 21.13066-17.74621 13.55153-33.05747 31.63925-4.40066 5.96533,9.45103 43.66193-41.67879 45.34202-45.00814 1.96282-3.88966-9.48913-56.23127-10.62167-59.67118-.02298-.06984 11.09551-20.32713 27.17183-17.96987 24.93649,3.65643 19.51446,26.95542 38.85391-.75993 9.82579-14.08136 30.70555,47.58188 31.43893,49.80944 10.51746,31.94538 48.06291-9.69063 62.35163-2.48014 15.26189,7.70157 12.94576,38.21431 30.54544,47.09561 13.88419,7.00634 40.0462-34.51363 43.52166-41.40082 11.37312-22.53765-1.6507-23.46267 37.96043-3.47379 27.89985,14.07903 19.11803-34.0416 57.85082-7.01433 23.5716,16.44799 4.74161-20.64982 3.74088-34.31971-1.68873-23.0679-17.56649-55.72089-27.73145-75.09414-5.75241-10.96347 45.7558,11.63434 37.03356,2.84739-15.90926-16.02728-35.72689-28.73698-50.43584-43.55505-19.05714-19.19851-27.74974-32.28012-42.26092-55.27052-12.53733-19.86319-8.43516-24.6233-26.078-33.52638-18.62925-9.40083-31.69949,21.18279-45.1751-.16694-9.37327-14.8503-36.74519,13.13889-52.42313,5.22737-4.41492-2.2279-19.81946-30.84886-23.36417-34.41987-7.80184-7.85972-41.97463,7.8034-53.34999,11.54854l-10.85539,3.57394c-12.4506,4.09915-28.12891,6.25294-41.60114,10.68844-.97996.32263-10.54728,20.63631-18.17019,27.03827z" fill="url(#linearGradient5049)" fill-rule="evenodd" opacity=".6"/>
<path d="m354.42542,220.08262c6.90844,20.98346-4.50162,43.5943-25.48509,50.50273s-43.59429-4.50163-50.50273-25.48508 4.50164-43.5943 25.48509-50.50274 43.59431,4.50164 50.50273,25.48509z" fill="url(#radialGradient5046)" fill-rule="evenodd"/>
<path d="m424.98529,196.85222c19.73833,59.95263-12.86181,124.55493-72.81445,144.29326s-124.55492-12.86181-144.29325-72.81445 12.8618-124.55492 72.81444-144.29325 124.55492,12.86181 144.29326,72.81444z" fill="url(#radialGradient5043)" fill-rule="evenodd" opacity=".6"/>
<path d="m224.70128,118.416c-142.31396,46.85438-211.39795,225.89578-154.1863,399.66859s287.5639,347.51589 388.27672,311.34999c103.42667-37.05943 184.58226-307.345 127.37056-481.11783s-219.14702-276.75513-361.46098-229.90075zm-4.68603,5.8527c5.01476-2.11272 10.74464-3.51482 17.33824-3.99751 19.32323-1.41459 35.13658,23.13694 40.55152,22.74052 20.43158-1.49573 28.64884-22.27403 43.46911-23.35896 18.53681-1.35702 21.95043,6.57209 34.28342,12.79564 11.4544,5.78022 26.17676,17.71425 41.4705,25.43188 12.52741,6.32168 34.93804,20.63206 49.6133,22.78388 13.77693,2.02012 32.63786,7.79746 36.9611,20.92871 9.13482,27.74578-12.25255,22.70505-11.00728,39.71535 1.71093,23.37113 43.08704,12.0548 52.26752,39.93929 9.49142,28.82896-26.55712,44.18364-17.35197,47.82494 .1859.07354 77.95538,54.04814 36.84735,57.05755-23.01326,1.68473-70.8716-27.59788-75.00805.61222-1.50317,10.25148-19.63224,63.67923-39.91582,43.24518-43.43605-43.75827-16.26837,9.50482-67.81122,13.27812-16.97486,1.24268-16.5704-17.48681-17.94071-36.20544-5.71813-78.10893-55.47888-5.98747-58.61222-31.8297-9.45344-77.96735 5.53691-10.74842-21.53114-38.01727-16.30657-16.42755-29.14162-34.04718-54.14617-18.26472-38.5548,24.33519-3.44413,29.96662.70873,56.91412 3.86151,25.05687-29.43376,24.76264-13.7084,40.60465 5.2796,5.31879 36.01472,49.85555 26.94938,45.28094l-10.85017-5.4753c-38.88808-19.624-32.51863,47.09334-65.04716,3.38639-25.28853-33.97888-18.82488,22.84067-46.24684,42.30274-7.79039,34.45505-14.3252,11.25056-19.84283-5.50853-4.98515-15.14174-3.33454-28.41537-8.86524-45.21411-9.02202-27.4032 13.60323-22.49358 24.54258-44.17162 6.36524-12.61371 33.05262-33.89799 5.57535-37.92698-14.4315-2.11609-36.67639,10.22887-20.76182-8.19987 10.23166-11.84804 54.45522-56.07761 30.09447-73.07626-13.71754-9.57193-53.55194-36.5225-13.38441-49.74696 35.8531-11.80401 44.86163-13.57622 42.62673-44.10478-1.81987-24.85923 36.80888-14.62406 48.03519-36.87081 6.94706-13.7667 15.65268-26.53514 30.69695-32.8733z" fill="url(#linearGradient5040)" fill-rule="evenodd" opacity=".4"/>
<path d="m442.63526,489.20015c81.03034,99.86464 89.602,227.16526 19.14535,284.3339s-193.26111,22.5567-274.29144-77.30794-89.60201-227.16526-19.14536-284.3339 193.26111-22.55671 274.29145,77.30794z" fill="url(#radialGradient5037)" fill-rule="evenodd" opacity=".53"/>
<path d="m440.59926,592.03528c45.39604,55.94768 48.15683,128.92228 6.16638,162.99332s-112.8312,16.33652-158.22726-39.61116-48.15684-128.92228-6.16638-162.99332 112.8312-16.33652 158.22726,39.61116z" fill="url(#radialGradient5034)" fill-rule="evenodd" opacity=".3"/>
<path d="m288.66528,744.38745c-20.65568-22.31966-67.29126-60.29078-94.21312-92.34699-15.24612-18.15376-28.17374-48.05082-3.64909-49.8462 37.18115-2.72191 38.72079,56.0129 30.70364-10.10863-.51461-4.24415 33.29938,41.82494 54.94772-1.07472 17.19063-34.06594 32.3846,46.6805 38.09625,64.02888 2.22176,6.74828 37.00982,9.09276 49.84621-3.64909 32.27276-32.03514 10.31432,33.51342 11.32499,47.31903 2.4586,33.58435 68.66731-48.67202 71.75199-53.40085 28.72669-44.03815 49.52967-15.70572 67.91403-52.13727 19.30093-38.24787 41.65795-69.86798 56.58904-99.45631 11.82895-23.44094-25.99953-28.78569 5.2904-48.53539 23.69113-14.95347 26.22014,43.16969 21.52807,52.46778-11.44139,22.67294-37.00852,17.94154-34.68324,49.70454 1.45469,19.87094 2.43557,33.23945 10.0142,56.25853 6.76928,20.56076-15.06818,55.22775-23.26381,71.4687-11.60059,22.98839-.46685,30.42545-27.00734,47.17738-18.20413,11.49016-16.68666,52.2094-34.68324,49.70454-12.54644,12.45406-33.3347,30.54314-42.31193,39.45426-16.78988,16.66625-40.66564-12.13534-68.98875-2.81045-21.37962,7.03886-46.54638-4.8879-60.00204-14.2771-12.9609-9.04396-24.37686-35.27889-29.20398-49.94064z" fill="url(#linearGradient5031)" fill-rule="evenodd" opacity=".1"/>
<path d="m586.15394,348.33413c57.21167,173.77282-23.93956,444.04284-127.36623,481.10227-100.71282,36.16594-331.05238-137.56721-388.26405-311.34002s11.85684-352.83257 154.1708-399.68695 304.24781,56.15189 361.45948,229.9247z" fill="url(#radialGradient5028)" fill-rule="evenodd"/>
<path d="m489.68956,804.10514c2.70818,8.32222-14.26639,20.02218-37.90972,26.12978s-44.99824,4.30902-47.69243-4.01682c-2.70818-8.32222 14.26639-20.02217 37.90972-26.12977s44.99824-4.30903 47.69243,4.01681z" fill="url(#radialGradient5025)" fill-rule="evenodd" opacity=".3"/>
<path d="m446.23935,816.96521c-5.54352,4.22093-13.61242,18.75406-15.68358,25.93052-1.15226,3.99254-8.5448,5.92941-12.36431,8.34103-7.51419,4.74443-2.61672,11.42828 5.12482,10.65515 10.31131-1.02976 20.17558-2.00051 30.35533-1.00115 7.67768.75372 15.45675-.52845 23.21888-1.30364 7.90448-.7894 8.40984-6.14243 6.13263-9.74904-2.07219-3.28193-11.67348-6.64203-14.27157-10.75687-2.46595-3.90555-3.70859-18.06241-9.24446-21.41067-.40746-.24644-7.27699-5.26679-13.26774-.70533z" fill="url(#linearGradient5022)" fill-rule="evenodd"/>
<path d="m446.23935,816.96521c-5.54352,4.22093-13.61242,18.75406-15.68358,25.93052-1.15226,3.99254-8.5448,5.92941-12.36431,8.34103-7.51419,4.74443-2.61672,11.42828 5.12482,10.65515 10.31131-1.02976 20.17558-2.00051 30.35533-1.00115 7.67768.75372 15.45675-.52845 23.21888-1.30364 7.90448-.7894 8.40984-6.14243 6.13263-9.74904-2.07219-3.28193-11.67348-6.64203-14.27157-10.75687-2.46595-3.90555-3.70859-18.06241-9.24446-21.41067-.40746-.24644-7.27699-5.26679-13.26774-.70533z" fill="url(#linearGradient5019)" fill-rule="evenodd"/>
<path d="m446.23935,816.96521c-5.54352,4.22093-13.61242,18.75406-15.68358,25.93052-1.15226,3.99254-8.5448,5.92941-12.36431,8.34103-7.51419,4.74443-2.61672,11.42828 5.12482,10.65515 10.31131-1.02976 20.17558-2.00051 30.35533-1.00115 7.67768.75372 15.45675-.52845 23.21888-1.30364 7.90448-.7894 8.40984-6.14243 6.13263-9.74904-2.07219-3.28193-11.67348-6.64203-14.27157-10.75687-2.46595-3.90555-3.70859-18.06241-9.24446-21.41067-.40746-.24644-7.27699-5.26679-13.26774-.70533z" fill="url(#linearGradient5016)" fill-rule="evenodd" opacity=".46759"/>
<path d="m446.23935,816.96521c-5.54352,4.22093-13.61242,18.75406-15.68358,25.93052-1.15226,3.99254-8.5448,5.92941-12.36431,8.34103-7.51419,4.74443-2.61672,11.42828 5.12482,10.65515 10.31131-1.02976 20.17558-2.00051 30.35533-1.00115 7.67768.75372 15.45675-.52845 23.21888-1.30364 7.90448-.7894 8.40984-6.14243 6.13263-9.74904-2.07219-3.28193-11.67348-6.64203-14.27157-10.75687-2.46595-3.90555-3.70859-18.06241-9.24446-21.41067-.40746-.24644-7.27699-5.26679-13.26774-.70533z" fill="url(#linearGradient5013)" fill-rule="evenodd" opacity=".50926"/>
<path d="m435.25979,849.33733c3.40939.0997 11.17939-1.42411 16.34132-3.17748 4.36892-1.484 7.05089-2.02384 9.51444-4.81395 3.56468-4.03715 3.77083-.90807 9.2601.97965 3.22669,2.82197 7.34764,1.35934 10.90162,7.05264 3.18594,2.41392-11.74601,1.17304-15.86954,1.58485-4.42998.44241-8.33505.05964-12.44702.47029-2.83678.28331-8.72694-.1824-10.87403-.45953-3.34122-.43128-1.7143-1.20639-6.82689-1.63647z" fill="url(#radialGradient5010)" fill-rule="evenodd" opacity=".67593"/>
<path d="m443.70416,823.82277c2.06126,4.26155 2.00789,8.55025-.11917,9.57909s-5.52239-1.59179-7.58364-5.85333-2.0079-8.55025.11918-9.57909 5.52238,1.59179 7.58363,5.85333z" fill="url(#radialGradient5007)" fill-rule="evenodd" opacity=".46759"/>
<path d="m438.5879,826.37967c-.30608.11307-.64237-.1151-.96355-.17265 7.14175.75729.0972-.1585 1.02267-1.66769-.30807-.17992-.08989.10735-.20665.24678l3.05662-9.77535c2.00789,1.02597 4.12586,1.46335 5.4576,3.53696 5.8255,11.41633-.75823,20.97618-13.85522,16.8107-9.32802-7.00865-7.12166-17.3049 4.45857-19.29202l1.02996,10.31327z" fill="url(#radialGradient5004)"/>
<path d="m464.55418,908.06269c-9.44039,36.799 49.86672,38.17258 58.34971,71.62708 8.57069,33.80033-28.51149,2.12263-37.63695,36.68023l2.13131,11.9762c15.27436-44.1191 46.0549-15.5216 37.41037-48.49188s-58.67587-48.73979-59.22331-65.52475l-1.03113-6.26688z" fill="url(#linearGradient5001)"/>
<g transform="matrix(-.99601,8.924813e-2,8.924813e-2,.99601,894.7740,-68.92501)">
<path d="m491.88862,1079.1723c-7.91854,14.1589-41.62829,31.3839-43.01535,15.9766-3.30857-36.7511 53.22268-24.29 57.43506,5.6083 2.04945,14.5464-34.73742,17.5301-39.26271,30.9648l-1.89924-8.3395c3.78069-11.4381 37.99976-13.4171 35.50069-21.3632-8.5518-27.1915-38.03299-23.3518-47.78892-13.6715 2.78223,14.9282 33.60137-2.5629 39.90574-16.7618l-.87527,7.5863z" fill="url(#linearGradient5070)"/>
<path d="m489.61871,1079.3757c-7.91854,14.1589-39.35838,31.1805-40.74544,15.7732l3.98488-6.8011c2.78223,14.9282 31.33146-2.3595 37.63583-16.5584l-.87527,7.5863z" fill="url(#linearGradient5072)"/>
</g>
<path d="m438.5879,826.37967c-.30608.11307-.64237-.1151-.96355-.17265 7.14175.75729.0972-.1585 1.02267-1.66769-.30807-.17992-.08989.10735-.20665.24678l3.05662-9.77535c2.00789,1.02597 4.12586,1.46335 5.4576,3.53696 5.8255,11.41633-.75823,20.97618-13.85522,16.8107-9.32802-7.00865-7.12166-17.3049 4.45857-19.29202l1.02996,10.31327z" fill="url(#linearGradient4992)"/>
<path d="m430.14119,819.05861c16.07499,18.14131 12.80776-2.60267 21.11342-3.89605 12.12404-3.92415 32.51836-3.82814 42.18507,3.82714 13.25268,10.49512 21.2606,23.48823 20.01207,43.72273-1.2567,20.367-26.31751,14.18346-45.08156,34.46194l.93068,3.91099c13.01809-19.21256 48.03629-9.82866 51.10487-33.49405 3.1102-23.98631-2.97566-40.66752-27.64268-52.77716-12.9528-6.07-27.12769-9.7834-41.1846-5.59981l-21.43727,9.84427z" fill="url(#linearGradient4989)"/>
<path d="m445.85191,816.32761c-7.49735,23.04999-12.78205,2.72613-20.9136,4.85562-12.68265,1.24157-17.22969-3.54928-2.67127-5.32452l23.58487.4689z" fill="url(#radialGradient4986)" opacity=".63889"/>
<path d="m584.43742,473.75055a96.69002,257.84003 0 1,1 -193.38003,0 96.69002,257.84003 0 1,1 193.38003,0z" fill="url(#linearGradient5092)" fill-rule="evenodd" opacity=".15" transform="matrix(.98588,-.16181,.16746,.95261,-68.14934,66.99263)"/>
<path d="m653.71472,683.6803c-2.30074,3.26367-1.8444,6.05486-.16423,11.60378 .93475,3.08708-3.80797,4.58469-5.61845,6.44939-3.56177,3.66845 3.19386,8.83648 8.72981,8.23869 7.37357-.79623 14.43399-1.54682 22.62789-.7741 6.17993.58278 11.51351-.40861 17.06419-1.00799 5.65245-.61038 3.60872-4.7494.24127-7.53808-3.06428-2.53763-11.8891-5.1357-15.73106-8.31734-3.64656-3.01982-11.01267-9.96607-16.7408-12.55498 .65272,4.10678-7.92226.37365-10.40862,3.90063z" fill="url(#linearGradient5096)" fill-rule="evenodd" opacity=".15"/>
<path d="m650.41186,689.82131c-6.11305,15.95556 4.03773,47.01021 12.00488,65.76106 7.31906,15.22655 15.93967,29.87628 27.58735,42.18313l-6.77163,6.10086c-11.66175-13.52777-20.5853-29.01782-28.23193-45.12707-7.2436-16.98647-32.1759-69.76554-3.26655-78.7342l-1.32212,9.81622z" fill="url(#linearGradient5195)" opacity=".1"/>
<path d="m527.9824,684.21651c-2.29234,1.82586-5.07102,8.84416-5.55507,12.43686-.26929,1.99876-3.57179,2.51459-5.18425,3.51448-3.17225,1.96708-.4545,5.76651 3.08739,5.87876 4.71761.1495 9.23165.29999 14.02315,1.49548 3.6138.90165 7.13927.75178 10.69058.86432 3.61644.11461 3.49498-2.63428 2.19813-4.66018-1.18012-1.84352-5.86014-4.22768-7.33974-6.53905-1.40435-2.19383-2.9227-9.63493-5.71493-11.74294-.20551-.15516-3.72797-3.22088-6.20526-1.24773z" fill="url(#linearGradient5187)" fill-rule="evenodd" opacity=".15"/>
<path d="m520.39741,692.48345c-14.90753,8.34954-26.97874,38.7093-32.85486,58.21676-4.11896,16.38447-6.86863,33.15852-5.79292,50.06917l-9.10765.35515c-.30527-17.85788 2.74932-35.47154 7.18139-52.74393 5.30313-17.68861 19.91664-74.2014 47.8714-62.59452l-7.29736,6.69737z" fill="url(#linearGradient5193)" opacity=".15"/>
</svg>
